<svg width="191" height="64" viewBox="0 0 191 64" fill="none" xmlns="http://www.w3.org/2000/svg">
<g id="Group">
<path id="Vector" d="M40.5816 0.0186087C38.5555 0.243733 36.4731 0.300014 34.447 0.581419C24.429 2.10101 15.5929 5.92812 8.55773 13.4135C4.05524 18.3099 1.29747 23.9943 1.01607 30.6918C0.622101 39.8093 4.50549 47.1258 11.2029 52.9791C19.5888 60.3519 29.6631 63.3348 40.6379 63.8413C41.7072 63.8976 41.8198 63.4473 41.8198 62.5468C41.8198 52.36 41.8198 42.1168 41.8198 31.93C41.8198 21.7431 41.8198 11.4999 41.8198 1.31307C41.8198 0.300014 41.5947 -0.0939533 40.5816 0.0186087ZM36.0229 56.0182C27.1305 55.4554 19.1948 52.5851 12.8914 46.0565C5.01202 37.952 5.01202 26.0204 12.8351 17.8597C18.632 11.8376 26.5677 8.40448 36.0791 7.84167C38.3867 7.72911 38.3867 7.72911 38.443 10.0929C38.443 11.106 38.2741 11.4999 37.0922 11.5562C30.5073 11.7813 24.4853 13.6386 19.2511 17.7471C9.06425 25.7953 9.28938 38.8525 19.7576 46.6193C24.8229 50.3901 30.6199 52.1911 36.9234 52.36C37.9927 52.4162 38.4992 52.5288 38.443 53.8233C38.3304 56.1308 38.4429 56.1871 36.0229 56.0182Z" fill="#0999A2"/>
<path id="Vector_2" d="M49.9243 0.300027C46.8288 -0.150221 46.8288 -0.0376591 46.8288 3.0578C46.8288 3.90201 47.0539 4.2397 47.8982 4.40854C51.6127 5.08391 55.0459 6.3221 57.9162 8.79846C62.1373 12.3442 62.4187 17.4095 58.5353 21.2928C55.8338 23.9943 52.4006 25.4014 48.7424 26.0767C47.2228 26.3581 46.3786 26.8084 46.8288 28.2154C46.8288 28.6657 46.8851 28.9471 46.8288 29.1722C46.6037 30.4104 47.1665 30.6355 48.2921 30.5229C52.6258 30.1852 56.5092 28.8908 59.9423 26.1893C65.7955 21.5743 67.2588 14.3703 63.488 8.46077C60.3926 3.45176 55.6087 1.08796 49.9243 0.300027Z" fill="#0999A2"/>
<path id="Vector_3" d="M97.3129 29.735C98.2697 28.8908 98.2697 28.3279 97.3129 27.54C96.6375 26.9772 96.131 26.2456 95.5119 25.5702C91.0657 29.7913 86.2818 30.1852 82.9612 26.7521C79.6969 23.3752 79.7532 17.1843 83.1301 13.9763C86.5632 10.712 91.3471 11.2185 95.3993 15.327C96.0747 14.6517 96.6375 13.92 97.3692 13.3572C98.4385 12.513 98.1571 11.9502 97.3129 11.1622C93.936 8.17934 89.9964 7.22256 85.719 8.12306C80.4286 9.1924 76.5452 13.3572 75.9824 18.3662C75.2507 24.3883 77.7271 29.341 82.4547 31.7048C87.126 34.2375 93.4858 33.337 97.3129 29.735Z" fill="#2A757A"/>
<path id="Vector_4" d="M185.505 15.721C181.622 14.2577 177.176 15.4396 174.812 18.5913C171.942 22.3622 172.504 28.0466 176.05 30.9169C179.877 34.0686 187.25 33.8998 190.177 30.6355C190.514 30.2415 190.627 29.9038 190.177 29.5661C189.839 29.2285 189.445 28.8345 189.22 28.4405C188.601 27.4837 188.094 27.4837 187.306 28.2717C186.856 28.7219 186.068 29.1159 185.393 29.341C182.354 30.4666 178.92 29.1722 177.964 26.5832C177.738 25.9079 177.682 25.5139 178.639 25.5139C180.553 25.5702 182.41 25.5139 184.267 25.5139C186.181 25.5139 188.038 25.5139 189.895 25.5139C190.514 25.5139 190.908 25.5139 190.965 24.6697C191.246 20.73 189.051 17.0718 185.505 15.721ZM185.393 22.6436C182.86 22.5873 180.271 22.6436 177.738 22.6436C178.076 20.2798 179.596 18.7602 181.791 18.5351C183.704 18.3662 185.449 19.4918 186.124 21.4054C186.406 22.0808 186.631 22.6436 185.393 22.6436Z" fill="#2A757A"/>
<path id="Vector_5" d="M61.1805 39.359C57.5222 36.0947 53.1323 34.744 48.3484 34.4063C47.8419 34.35 46.9414 34.0123 47.1102 35.0817C47.2228 35.9259 46.3223 37.1641 48.1233 37.4455C51.7816 38.1209 55.2147 39.4153 58.085 41.8917C62.1373 45.3811 62.3624 50.3901 58.5916 54.1609C55.7212 57.0313 52.1192 58.4383 48.2921 59.1137C46.3223 59.4514 47.1665 60.8021 47.1102 61.7589C46.9977 62.9408 48.067 62.1529 48.5173 62.4343C53.0197 62.0966 57.072 60.8021 60.6177 57.9881C67.0337 52.9228 67.3151 44.8746 61.1805 39.359Z" fill="#0999A2"/>
<path id="Vector_6" d="M109.92 33.1681C115.379 33.1119 119.206 29.341 119.206 24.0506C119.206 18.7602 115.267 14.9894 109.751 15.0457C104.235 15.0457 100.352 18.8728 100.408 24.2195C100.408 29.5099 104.348 33.2244 109.92 33.1681ZM109.864 18.7602C112.678 18.8165 114.591 21.0114 114.591 24.1632C114.591 27.3149 112.621 29.3973 109.751 29.3973C106.881 29.3973 104.911 27.1461 104.967 23.9381C105.023 20.8989 107.05 18.7039 109.864 18.7602Z" fill="#2A757A"/>
<path id="Vector_7" d="M128.267 33.1681C130.631 33.3933 132.601 32.5491 134.346 30.8606C134.064 32.6053 134.796 32.8867 136.203 32.7179C136.597 32.6616 137.104 32.6616 137.498 32.7179C138.567 32.8305 138.848 32.4365 138.792 31.4234C138.736 27.2586 138.792 23.0938 138.792 18.929C138.792 15.6085 138.792 15.6647 135.528 15.6647C134.571 15.6647 134.233 15.9462 134.29 16.9029C134.346 19.8295 134.29 22.7562 134.29 25.6265C134.29 26.4144 134.177 27.0898 133.67 27.7089C132.545 29.1722 130.575 29.8476 128.887 29.2285C127.367 28.6657 126.692 27.5963 126.692 25.4014C126.692 22.4185 126.635 19.4356 126.692 16.4527C126.692 15.4396 126.129 15.3271 125.51 15.4959C124.44 15.8336 122.471 14.4828 122.302 16.3401C122.02 19.8858 122.077 23.5441 122.302 27.1461C122.527 30.8606 124.609 32.7742 128.267 33.1681Z" fill="#2B757A"/>
<path id="Vector_8" d="M166.989 22.8687C165.188 22.1933 163.274 22.0808 161.53 21.6868C160.742 21.518 159.729 21.4054 159.785 20.2798C159.785 19.2104 160.629 18.8727 161.473 18.6476C163.274 18.2537 164.906 18.5351 166.482 19.4918C168.508 20.6737 168.508 20.6175 170.028 18.8727C170.647 18.1974 170.478 17.8597 169.859 17.4094C166.651 15.1019 163.162 14.5954 159.447 15.721C158.153 16.115 157.083 16.9029 156.295 18.0285C154.776 20.2235 155.395 23.0938 157.702 24.3883C158.884 25.0637 160.179 25.3451 161.53 25.6265C162.824 25.9079 164.231 25.9079 165.469 26.4707C166.088 26.6958 166.482 27.0898 166.539 27.7651C166.595 28.4405 166.257 28.8908 165.694 29.2285C165.244 29.5099 164.738 29.6787 164.175 29.7913C162.261 29.9601 160.517 29.6787 158.884 28.7219C156.858 27.54 156.915 27.5963 155.339 29.3973C154.607 30.1852 154.945 30.5229 155.564 30.9169C157.759 32.4365 160.291 33.2244 162.937 33.1681C164.4 33.1681 165.919 32.9993 167.27 32.3802C169.578 31.4234 170.928 29.5099 170.76 27.2023C170.703 25.1199 169.465 23.7129 166.989 22.8687Z" fill="#2A757A"/>
<path id="Vector_9" d="M153.256 16.3401C153.369 15.4396 152.975 15.2145 152.131 15.3271C150.161 15.5522 148.585 16.4527 147.29 18.3099C146.896 15.6085 146.896 15.6085 144.251 15.6085C144.139 15.6085 144.082 15.6085 143.97 15.6085C142.901 15.4396 142.675 15.8899 142.675 16.9029C142.732 21.124 142.675 25.2888 142.675 29.5099C142.675 32.7179 142.675 32.6616 145.883 32.6616C146.84 32.6616 147.178 32.3802 147.122 31.4234C147.065 28.9471 147.065 26.4707 147.178 23.9943C147.29 21.518 148.866 19.6044 151.23 19.5481C153.256 19.4918 153.313 18.5351 153.144 17.128C153.256 16.8466 153.256 16.6215 153.256 16.3401Z" fill="#2A757A"/>
<path id="Vector_10" d="M91.2908 42.5108C92.5853 40.3158 90.5029 37.7269 87.52 37.558C85.8878 37.4455 84.2557 37.6143 82.6236 37.5018C81.6668 37.4455 81.4979 37.8395 81.4979 38.6837C81.5542 40.7098 81.4979 42.7359 81.4979 44.762C81.4979 46.8444 81.4979 48.9268 81.4979 51.0092C81.4979 51.4032 81.3291 52.0223 82.0607 52.0223C84.5371 51.9097 87.126 52.4162 89.6024 51.6846C91.9662 50.8967 93.1481 47.9138 91.6285 46.0565C90.5592 44.7057 90.334 44.0304 91.2908 42.5108ZM85.4939 38.9088C86.2818 38.9088 87.126 38.8525 87.8577 38.9651C89.1522 39.1339 90.0527 40.147 89.9964 41.3289C89.9964 42.5671 89.1521 43.5238 87.8014 43.6927C87.0698 43.8052 86.3381 43.8052 85.6064 43.8052C83.1301 43.8052 83.1301 43.8052 83.1301 41.2726C83.1301 38.9088 83.1301 38.9088 85.4939 38.9088ZM90.6717 48.1952C90.5029 49.5459 89.6587 50.3338 88.3642 50.5027C87.5763 50.6152 86.7321 50.5027 86.0004 50.5027C83.1301 50.559 83.1301 50.559 83.1301 47.6886C83.1301 45.2123 83.1301 45.2123 85.6064 45.2123C86.6195 45.2123 87.6888 45.0434 88.7019 45.3811C90.1089 45.8876 90.8406 46.8444 90.6717 48.1952Z" fill="#08787F"/>
<path id="Vector_11" d="M115.829 37.4455C114.647 37.5018 115.154 38.346 115.154 38.8525C115.098 40.3721 115.154 41.8917 115.154 43.6927C112.678 41.2726 109.864 41.16 107.781 43.0736C105.755 44.9871 105.586 48.5329 107.443 50.6152C109.413 52.8102 112.396 52.9228 115.154 50.7278C115.154 51.4595 114.985 52.0786 115.942 52.0223C117.011 51.966 116.617 51.2343 116.617 50.7278C116.617 46.7881 116.674 42.7922 116.617 38.9088C116.561 38.4023 117.124 37.3892 115.829 37.4455ZM111.439 51.0092C109.244 51.0092 107.669 49.3771 107.669 47.0695C107.669 44.762 109.132 43.0736 111.327 43.0173C113.634 43.0173 115.098 44.762 115.098 47.5198C115.154 49.6022 113.691 51.0092 111.439 51.0092Z" fill="#07777E"/>
<path id="Vector_12" d="M129.449 38.4023C129.449 37.8395 129.449 37.4455 128.718 37.4455C127.986 37.4455 127.93 37.8395 127.93 38.4023C127.93 40.0344 127.93 41.6666 127.93 43.5238C125.172 41.2726 122.471 41.2163 120.501 43.2424C118.643 45.0997 118.475 48.4766 120.107 50.5027C121.964 52.8102 124.834 52.9791 127.986 50.9529C127.986 51.572 127.93 52.1911 128.887 52.1348C129.843 52.0786 129.506 51.3469 129.506 50.9529C129.449 46.7319 129.449 42.5671 129.449 38.4023ZM124.328 51.0092C122.133 51.0092 120.557 49.3771 120.557 47.0695C120.557 44.762 122.077 43.0736 124.272 43.0736C126.579 43.0736 127.986 44.762 128.042 47.4635C127.93 49.6022 126.523 51.0092 124.328 51.0092Z" fill="#07777E"/>
<path id="Vector_13" d="M103.785 43.0173C103.785 42.3982 103.842 41.948 102.941 41.948C102.153 41.948 102.209 42.3982 102.209 42.961C102.209 44.4806 102.209 46.0565 102.209 47.5198C102.209 49.5459 100.915 50.8967 98.9451 50.9529C97.0315 51.0092 96.0747 49.9399 96.0747 47.6886C96.0747 46.0565 96.0747 44.4243 96.0747 42.7922C96.0747 42.3419 96.0184 41.8917 95.3431 41.948C94.7803 41.948 94.4989 42.0605 94.4989 42.7359C94.5551 44.8183 94.4426 46.9007 94.6114 48.9831C94.724 50.6715 95.6808 51.8534 97.3692 52.2474C99.2265 52.6976 100.746 52.1348 102.153 50.7278C102.378 51.3469 101.984 52.1911 103.11 52.0786C104.123 51.966 103.785 51.2343 103.785 50.7841C103.785 48.1389 103.785 45.6062 103.785 43.0173Z" fill="#08787F"/>
<path id="Vector_14" d="M139.355 43.0173C138.398 45.3811 137.385 47.8012 136.316 50.3901C136.034 49.7147 135.865 49.2645 135.584 48.8705C134.74 46.7881 133.839 44.762 133.108 42.6796C132.826 41.8917 132.151 41.8917 131.701 42.0605C131.025 42.2857 131.588 42.8485 131.757 43.1861C132.826 45.6625 133.896 48.1952 134.965 50.6715C135.922 52.8665 135.246 54.1609 132.882 54.7238C132.489 54.8363 132.32 54.9489 132.263 55.3991C132.263 55.7931 132.432 56.0182 132.882 56.0745C134.177 56.1308 135.303 55.8494 135.865 54.6112C137.723 50.5027 139.411 46.3942 141.268 42.2857C140.255 41.7791 139.749 42.0605 139.355 43.0173Z" fill="#08787F"/>
</g>
</svg>
